# AST/ASF file generated using VICON BodyLanguage
# -----------------------------------------------
:version 1.10
:name VICON
:units
  mass 1.0
  length 0.45
  angle deg
:documentation
   .ast/.asf automatically generated from VICON data using
   VICON BodyBuilder and BodyLanguage model FoxedUp or BRILLIANT.MOD
:root
   order TX TY TZ RX RY RZ
   axis XYZ
   position 0 0 0  
   orientation 0 0 0 
:bonedata
  begin
     id 1 
     name lhipjoint
     direction 0.521452 -0.77106 0.36545 
     length 2.0933 
     axis 0 0 0  XYZ
  end
  begin
     id 2 
     name lfemur
     direction 0.34202 -0.939693 0  
     length 6.83441  
     axis 0 0 20  XYZ
    dof rx ry rz
    limits (-160.0 20.0)
           (-70.0 70.0)
           (-60.0 70.0)
  end
  begin
     id 3 
     name ltibia
     direction 0.34202 -0.939693 0   
     length 7.28749   
     axis 0 0 20   XYZ
    dof rx
    limits (-10.0 170.0)
  end
  begin
     id 4 
     name lfoot
     direction 0.100608 -0.276418 0.955757   
     length 1.52195   
     axis -90 7.62852e-016 20   XYZ
    dof rx rz
    limits (-45.0 90.0)
           (-70.0 20.0)
  end
  begin
     id 5 
     name ltoes
     direction 1.53558e-011 -4.21907e-011 1   
     length 0.770459   
     axis -90 7.62852e-016 20   XYZ
    dof rx
    limits (-90.0 20.0)
  end
  begin
     id 6 
     name rhipjoint
     direction -0.488071 -0.788702 0.373812   
     length 2.04648  
     axis 0 0 0  XYZ 
  end
  begin
     id 7 
     name rfemur
     direction -0.34202 -0.939693 0   
     length 6.92583   
     axis 0 0 -20   XYZ
    dof rx ry rz
    limits (-160.0 20.0)
           (-70.0 70.0)
           (-70.0 60.0)
  end
  begin
     id 8 
     name rtibia
     direction -0.34202 -0.939693 0   
     length 7.41043   
     axis 0 0 -20   XYZ
    dof rx
    limits (-10.0 170.0)
 end
 begin
     id 9 
     name rfoot
     direction -0.0784433 -0.215521 0.973343   
     length 1.67708  
     axis -90 -7.62852e-016 -20   XYZ
    dof rx rz
    limits (-45.0 90.0)
           (-20.0 70.0)
  end
  begin
     id 10 
     name rtoes
     direction -1.53551e-011 -4.21842e-011 1   
     length 0.849787   
     axis -90 -7.62852e-016 -20   XYZ
    dof rx
    limits (-90.0 20.0)
  end
  begin
     id 11 
     name lowerback
     direction -0.0122332 0.997575 -0.0685192   
     length 1.98724   
     axis 0 0 0   XYZ
    dof rx ry rz
    limits (-20.0 45.0)
           (-30.0 30.0)
           (-30.0 30.0)
  end
  begin
     id 12 
     name upperback
     direction 0.0182347 0.999724 -0.0148421   
     length 1.99029   
     axis 0 0 0   XYZ
    dof rx ry rz
    limits (-20.0 45.0)
           (-30.0 30.0)
           (-30.0 30.0)
  end
  begin
     id 13 
     name thorax
     direction 0.0242908 0.99956 0.0170184   
     length 1.99573   
     axis 0 0 0   XYZ
    dof rx ry rz
    limits (-20.0 45.0)
           (-30.0 30.0)
           (-30.0 30.0)
  end
  begin
     id 14 
     name lowerneck
     direction 0.0654488 0.985533 0.156338   
     length 1.4285   
     axis 0 0 0   XYZ
    dof rx ry rz
    limits (-20.0 45.0)
           (-30.0 30.0)
           (-30.0 30.0)
  end
  begin
     id 15 
     name upperneck
     direction -0.02953 0.998556 -0.0448842   
     length 1.44709   
     axis 0 0 0   XYZ
    dof rx ry rz
    limits (-20.0 45.0)
           (-30.0 30.0)
           (-30.0 30.0)
  end
  begin
     id 16
     name head
     direction -0.0155588 0.999386 -0.0314063  
     length 1.44689  
     axis 0 0 0   XYZ
    dof rx ry rz
    limits (-20.0 45.0)
           (-30.0 30.0)
           (-30.0 30.0)
  end
  begin
     id 17 
     name lclavicle
     direction 0.968229 0.236071 -0.0824755  
     length 3.60593  
     axis 0 0 0   XYZ
    dof ry rz
    limits (-20.0 10.0)
           (0.0 20.0)
  end
  begin
     id 18 
     name lhumerus
     direction 1 -4.48968e-011 7.8138e-029   
     length 5.06035   
     axis 180 -30 -90   XYZ
    dof rx ry rz
    limits (-60.0 90.0)
           (-90.0 90.0)
           (-90.0 90.0)
  end
  begin
     id 19
     name lradius
     direction 1 -4.48967e-011 9.02887e-028   
     length 3.1478   
     axis 180 -30 -90   XYZ
    dof rx
    limits (-10.0 170.0)
  end
  begin
     id 20
     name lwrist
     direction 1 -4.48961e-011 7.20928e-028   
     length 1.5739   
     axis -5.52449e-016 90 90   XYZ
    dof ry
    limits (-180.0 0.0)
 end
  begin
     id 21 
     name lhand
     direction 1 -4.48972e-011 1.44186e-027   
     length 0.606747   
     axis -9.20027e-016 90 90   XYZ
    dof rx rz
    limits (-90.0 90.0)
           (-45.0 45.0)
  end
  begin
     id 22 
     name lfingers
     direction 1 -4.48943e-011 2.88371e-027   
     length 0.489175   
     axis -1.84005e-015 90 90   XYZ
    dof rx
    limits (0.0 90.0)
  end
  begin
     id 23
     name lthumb
     direction 0.707107 -6.34917e-011 0.707107   
     length 0.70236   
     axis -90 45 2.85299e-015   XYZ
    dof rx rz
    limits (-45.0 45.0)
           (-45.0 45.0)
  end
  begin
     id 24 
     name rclavicle
     direction -0.978165 0.207816 0.0022268   
     length 3.35425  
     axis 0 0 0   XYZ 
    dof ry rz
    limits (-10.0 20.0)
           (-20.0 0.0)
  end
  begin
     id 25 
     name rhumerus
     direction -1 -4.48964e-011 -4.02159e-027  
     length 5.12273   
     axis 180 30 90   XYZ
    dof rx ry rz
    limits (-90.0 60.0)
           (-90.0 90.0)
           (-90.0 90.0)
  end
  begin
     id 26 
     name rradius
     direction -1 -4.48966e-011 1.62746e-027   
     length 3.422   
     axis 180 30 90   XYZ
    dof rx
    limits (-10.0 170.0)
  end
  begin
     id 27 
     name rwrist
     direction -1 -4.4896e-011 7.20928e-028   
     length 1.711   
     axis -5.52449e-016 -90 -90   XYZ
    dof ry
    limits (-180.0 0.0)
  end
  begin
     id 28
     name rhand
     direction -1 -4.48979e-011 1.44186e-027   
     length 0.704599   
     axis -9.20027e-016 -90 -90   XYZ
    dof rx rz
    limits (-90.0 90.0)
           (-45.0 45.0)
  end
  begin
     id 29
     name rfingers
     direction -1 -4.48962e-011 2.88371e-027   
     length 0.568066   
     axis -1.84005e-015 -90 -90   XYZ
    dof rx
    limits (0.0 90.0)
  end
  begin
     id 30
     name rthumb
     direction -0.707107 -6.34949e-011 0.707107   
     length 0.815633   
     axis -90 -45 -2.85299e-015   XYZ
    dof rx rz
    limits (-45.0 45.0)
           (-45.0 45.0)
  end
:hierarchy
  begin
    root lhipjoint rhipjoint lowerback
    lhipjoint lfemur
    lfemur ltibia
    ltibia lfoot
    lfoot ltoes
    rhipjoint rfemur
    rfemur rtibia
    rtibia rfoot
    rfoot rtoes
    lowerback upperback
    upperback thorax
    thorax lowerneck lclavicle rclavicle
    lowerneck upperneck
    upperneck head
    lclavicle lhumerus
    lhumerus lradius
    lradius lwrist
    lwrist lhand lthumb
    lhand lfingers
    rclavicle rhumerus
    rhumerus rradius
    rradius rwrist
    rwrist rhand rthumb
    rhand rfingers
  end

#!OML:ASF E:\id_vita\Project 1\Capture day 1\Session 1\Male1.ASF
:FULLY-SPECIFIED
:DEGREES
131
root -20.976 16.2165 3.1969 -171.445 40.2632 -181.108
lowerback -2.8915 -5.11531 -3.98001
upperback 2.48522 -6.75128 6.00105
thorax 5.43979 -3.57442 8.00922
lowerneck -5.8427 -12.9946 0.255477
upperneck 26.9141 -18.6086 6.54625
head 10.1852 -7.37371 0.355091
rclavicle -1.23644e-013 4.45278e-014
rhumerus -23.7466 -31.4385 -70.827
rradius 14.9784
rwrist 22.4706
rhand -15.9852 31.8182
rfingers 7.12502
rthumb 10.2144 2.0862
lclavicle -1.23644e-013 4.45278e-014
lhumerus -20.4498 16.111 87.1586
lradius 16.4566
lwrist -7.61975
lhand -11.8479 44.2083
lfingers 7.12502
lthumb 14.2036 73.7027
rfemur -23.7073 -2.89017 16.7424
rtibia 26.8325
rfoot -5.94844 -17.2316
rtoes 2.04131
lfemur -2.01271 4.00256 -20.6622
ltibia 18.7843
lfoot -11.0219 39.1204
ltoes 20.4074
132
root -20.8922 16.2112 3.19336 -171.363 40.8845 -181.007
lowerback -2.97616 -5.03256 -4.15173
upperback 2.49764 -6.63449 6.0569
thorax 5.50974 -3.52695 8.17409
lowerneck -5.68435 -13.0466 0.146965
upperneck 27.2052 -18.6637 6.56379
head 10.2791 -7.38428 0.376545
rclavicle 1.26427e-013 0
rhumerus -24.1807 -31.6364 -70.5803
rradius 14.978
rwrist 22.7216
rhand -15.9679 31.8748
rfingers 7.12502
rthumb 10.2311 2.14362
lclavicle 1.26427e-013 0
lhumerus -20.4522 16.1819 87.1422
lradius 16.543
lwrist -7.49678
lhand -11.906 44.2577
lfingers 7.12502
lthumb 14.1476 73.756
rfemur -23.5859 -2.62143 17.0348
rtibia 26.8079
rfoot -7.78441 -16.9999
rtoes 5.11522
lfemur -1.58962 4.26429 -20.1544
ltibia 18.8058
lfoot -10.252 38.064
ltoes 19.2203
133
root -20.8112 16.2009 3.18871 -171.36 41.4239 -180.952
lowerback -2.97154 -4.97107 -4.23687
upperback 2.51607 -6.54956 6.07437
thorax 5.52423 -3.48968 8.25135
lowerneck -5.58744 -13.0717 -0.0244122
upperneck 27.4677 -18.6934 6.63423
head 10.386 -7.38493 0.422916
rclavicle 8.54774e-014 -4.77083e-015
rhumerus -24.5402 -32.3766 -70.1112
rradius 14.6917
rwrist 23.1857
rhand -15.8965 31.9812
rfingers 7.12502
rthumb 10.3 2.25339
lclavicle 8.54774e-014 -4.77083e-015
lhumerus -20.4641 15.9204 87.1745
lradius 16.714
lwrist -7.00149
lhand -12.0569 44.5302
lfingers 7.12502
lthumb 14.0021 74.0386
rfemur -23.4715 -2.5807 17.3203
rtibia 26.8286
rfoot -5.74428 -16.4629
rtoes -2.80608
lfemur -1.08881 4.2229 -19.7091
ltibia 18.7468
lfoot -9.08505 37.2218
ltoes 17.647
134
root -20.7256 16.2025 3.18403 -171.283 41.9889 -180.791
lowerback -3.01306 -4.9346 -4.2382
upperback 2.54964 -6.50138 6.06584
thorax 5.5738 -3.46808 8.24393
lowerneck -5.40449 -13.0181 -0.167801
upperneck 27.6288 -18.6338 6.82325
head 10.4461 -7.33895 0.524071
rclavicle 5.08889e-014 6.04305e-014
rhumerus -24.8138 -31.9671 -70.2641
rradius 14.5976
rwrist 23.1547
rhand -15.8811 31.8677
rfingers 7.12502
rthumb 10.3149 2.14067
lclavicle 5.08889e-014 6.04305e-014
lhumerus -20.5222 15.6687 87.0888
lradius 16.9704
lwrist -6.42588
lhand -11.8085 44.6824
lfingers 7.12502
lthumb 14.2415 74.1741
rfemur -23.3603 -2.60853 17.7395
rtibia 26.8911
rfoot -6.09365 -15.9801
rtoes -4.25343
lfemur -0.566939 4.0858 -19.2046
ltibia 18.6341
lfoot -8.6453 36.6107
ltoes 16.9114
135
root -20.64 16.2192 3.17582 -171.099 42.6062 -180.492
lowerback -3.12889 -4.89262 -4.15884
upperback 2.59481 -6.44835 6.08324
thorax 5.67092 -3.44209 8.21303
lowerneck -5.29473 -12.9536 -0.137605
upperneck 27.9986 -18.5338 6.76984
head 10.551 -7.26497 0.517223
rclavicle 7.55382e-015 -5.725e-014
rhumerus -25.1941 -32.4675 -70.0089
rradius 14.3129
rwrist 23.9076
rhand -15.8727 31.8253
rfingers 7.12502
rthumb 10.323 2.09861
lclavicle 7.55382e-015 -5.725e-014
lhumerus -20.5467 16.1503 86.8811
lradius 17.0919
lwrist -6.39681
lhand -11.4251 44.7386
lfingers 7.12502
lthumb 14.611 74.2039
rfemur -23.1706 -2.36499 18.1939
rtibia 26.9857
rfoot -9.09343 -15.4779
rtoes 2.84195
lfemur -0.0485124 4.03255 -18.6355
ltibia 18.4918
lfoot -8.41026 36.0197
ltoes 17.1577
